<svg width="64" height="64" viewBox="0 0 64 64" fill="none" xmlns="http://www.w3.org/2000/svg">
<path d="M38.1052 3.0787C35.3222 4.12537 34.0815 5.356 32.1028 8.02334C32.6546 3.36321 34.2731 0.225864 41.9163 0.0932617C40.6101 6.06506 39.4744 8.89892 33.532 8.95629C34.8013 6.5353 35.7209 5.22859 38.1052 3.0787Z" fill="#7EA388"/>
<path d="M24.7665 2.98544C27.5496 4.03211 28.7902 5.26273 30.7689 7.93008C30.2172 3.26995 28.5986 0.132602 20.9555 0C22.2616 5.97179 23.3973 8.80566 29.3398 8.86303C28.0705 6.44204 27.1508 5.13532 24.7665 2.98544Z" fill="#7EA388"/>
<path d="M63.8303 21.7378C65.3198 38.8017 57.2233 38.211 32.008 64.0005L25.8147 58.3091C23.9681 40.908 56.6213 46.6131 63.8303 21.7378ZM41.0959 43.6528C39.3748 44.2063 38.3555 44.6262 36.4407 45.646L35.8401 45.9663L36.3254 46.4438C38.3352 48.4215 38.9918 49.5431 39.9368 51.6128L40.3049 52.4185L40.8049 51.688C41.6276 50.4841 42.3138 49.2662 42.5559 47.9751C42.8028 46.6579 42.58 45.3066 41.6731 43.8628L41.466 43.5337L41.0959 43.6528Z" fill="#8F7A9C"/>
<path d="M34.7805 14.126C41.4129 6.7702 52.4961 6.65953 58.5783 12.9795L58.8645 13.2852L58.9475 13.376L58.9787 13.4961C60.0291 17.5654 59.6647 20.7557 58.7287 23.3145C57.7979 25.8588 56.3085 27.7545 55.175 29.2266L55.0822 29.3467L54.9377 29.3955C51.9209 30.4073 48.0089 31.3301 44.2453 29.6182C40.4675 27.8996 36.9992 23.6053 34.6672 14.5859L34.5998 14.3252L34.7805 14.126ZM45.8225 15.3008C42.9285 15.3008 40.5823 17.5978 40.5822 20.4316C40.5822 23.2655 42.9284 25.5625 45.8225 25.5625C48.7166 25.5625 51.0627 23.2655 51.0627 20.4316C51.0627 17.5978 48.7165 15.3008 45.8225 15.3008Z" fill="#8F7A9C"/>
<path d="M5.9019 13.5283C11.767 6.21206 24.009 7.63655 30.483 16.1406C31.5595 23.0622 37.5455 34.3447 47.0611 34.6123C39.2576 39.1821 23.4732 42.9107 21.2408 53.9248C5.64922 37.6527 -2.26287 35.2885 0.565964 19.8721C4.32297 33.8447 13.3085 34.7444 29.816 41.6094L34.8658 38.8105C23.2279 32.0625 2.78504 30.9149 5.9019 13.5283ZM20.5748 18.0996C17.7333 18.0996 15.4292 20.3553 15.4292 23.1377C15.4293 25.92 17.7334 28.1758 20.5748 28.1758C23.416 28.1756 25.7192 25.9199 25.7193 23.1377C25.7193 20.3554 23.416 18.0998 20.5748 18.0996Z" fill="#8F7A9C"/>
</svg>
